<mxfile host="app.diagrams.net" agent="Mozilla/5.0 (Windows NT 10.0; Win64; x64) AppleWebKit/537.36 (KHTML, like Gecko) Chrome/130.0.0.0 Safari/537.36" version="24.8.3">
  <diagram name="Page-1" id="j7vLBdzjXg1ckcExes_Q">
    <mxGraphModel dx="1109" dy="601" grid="1" gridSize="10" guides="1" tooltips="1" connect="1" arrows="1" fold="1" page="1" pageScale="1" pageWidth="827" pageHeight="1169" math="0" shadow="0">
      <root>
        <mxCell id="0" />
        <mxCell id="1" parent="0" />
        <mxCell id="OOyDH6xlxbpdCStZkQem-6" value="" style="edgeStyle=orthogonalEdgeStyle;rounded=0;orthogonalLoop=1;jettySize=auto;html=1;" edge="1" parent="1" source="OOyDH6xlxbpdCStZkQem-1" target="OOyDH6xlxbpdCStZkQem-3">
          <mxGeometry relative="1" as="geometry" />
        </mxCell>
        <mxCell id="OOyDH6xlxbpdCStZkQem-1" value="&lt;b&gt;&lt;font style=&quot;font-size: 20px;&quot;&gt;START&lt;/font&gt;&lt;/b&gt;" style="ellipse;whiteSpace=wrap;html=1;" vertex="1" parent="1">
          <mxGeometry x="370" y="10" width="130" height="80" as="geometry" />
        </mxCell>
        <mxCell id="OOyDH6xlxbpdCStZkQem-3" value="&amp;nbsp;Input a number A" style="shape=parallelogram;perimeter=parallelogramPerimeter;whiteSpace=wrap;html=1;fixedSize=1;" vertex="1" parent="1">
          <mxGeometry x="337.5" y="130" width="195" height="50" as="geometry" />
        </mxCell>
        <mxCell id="OOyDH6xlxbpdCStZkQem-4" value="" style="endArrow=classic;html=1;rounded=0;" edge="1" parent="1">
          <mxGeometry width="50" height="50" relative="1" as="geometry">
            <mxPoint x="434.5" y="180" as="sourcePoint" />
            <mxPoint x="434.5" y="220" as="targetPoint" />
          </mxGeometry>
        </mxCell>
        <mxCell id="OOyDH6xlxbpdCStZkQem-5" value="&lt;font style=&quot;font-size: 13px;&quot;&gt;a % 5 == 0 and a % 11 == 0&lt;/font&gt;" style="rhombus;whiteSpace=wrap;html=1;" vertex="1" parent="1">
          <mxGeometry x="340" y="220" width="190" height="120" as="geometry" />
        </mxCell>
        <mxCell id="OOyDH6xlxbpdCStZkQem-7" value="" style="endArrow=classic;html=1;rounded=0;exitX=0;exitY=0.5;exitDx=0;exitDy=0;" edge="1" parent="1" source="OOyDH6xlxbpdCStZkQem-5">
          <mxGeometry width="50" height="50" relative="1" as="geometry">
            <mxPoint x="330" y="270" as="sourcePoint" />
            <mxPoint x="170" y="360" as="targetPoint" />
            <Array as="points">
              <mxPoint x="170" y="280" />
            </Array>
          </mxGeometry>
        </mxCell>
        <mxCell id="OOyDH6xlxbpdCStZkQem-8" value="" style="endArrow=classic;html=1;rounded=0;" edge="1" parent="1">
          <mxGeometry width="50" height="50" relative="1" as="geometry">
            <mxPoint x="532.5" y="280" as="sourcePoint" />
            <mxPoint x="680" y="360" as="targetPoint" />
            <Array as="points">
              <mxPoint x="680" y="280" />
            </Array>
          </mxGeometry>
        </mxCell>
        <mxCell id="OOyDH6xlxbpdCStZkQem-9" value="&lt;font style=&quot;font-size: 15px;&quot;&gt;Output a &quot; is divisible by both 5 and 11&quot;&lt;/font&gt;&amp;nbsp;" style="rounded=0;whiteSpace=wrap;html=1;" vertex="1" parent="1">
          <mxGeometry x="80" y="360" width="290" height="40" as="geometry" />
        </mxCell>
        <mxCell id="OOyDH6xlxbpdCStZkQem-10" value="&lt;font style=&quot;font-size: 14px;&quot;&gt;Output a &quot; is not divisible by both 5 and 11&quot;&amp;nbsp;&lt;/font&gt;" style="rounded=0;whiteSpace=wrap;html=1;" vertex="1" parent="1">
          <mxGeometry x="530" y="360" width="290" height="40" as="geometry" />
        </mxCell>
        <mxCell id="OOyDH6xlxbpdCStZkQem-11" value="" style="endArrow=classic;html=1;rounded=0;" edge="1" parent="1">
          <mxGeometry width="50" height="50" relative="1" as="geometry">
            <mxPoint x="170" y="400" as="sourcePoint" />
            <mxPoint x="410" y="460" as="targetPoint" />
            <Array as="points">
              <mxPoint x="170" y="460" />
            </Array>
          </mxGeometry>
        </mxCell>
        <mxCell id="OOyDH6xlxbpdCStZkQem-13" value="" style="endArrow=classic;html=1;rounded=0;" edge="1" parent="1">
          <mxGeometry width="50" height="50" relative="1" as="geometry">
            <mxPoint x="680" y="400" as="sourcePoint" />
            <mxPoint x="460" y="460" as="targetPoint" />
            <Array as="points">
              <mxPoint x="680" y="460" />
            </Array>
          </mxGeometry>
        </mxCell>
        <mxCell id="OOyDH6xlxbpdCStZkQem-14" value="" style="ellipse;whiteSpace=wrap;html=1;aspect=fixed;" vertex="1" parent="1">
          <mxGeometry x="410" y="440" width="50" height="50" as="geometry" />
        </mxCell>
        <mxCell id="OOyDH6xlxbpdCStZkQem-15" value="" style="endArrow=classic;html=1;rounded=0;" edge="1" parent="1">
          <mxGeometry width="50" height="50" relative="1" as="geometry">
            <mxPoint x="434.5" y="490" as="sourcePoint" />
            <mxPoint x="434.5" y="530" as="targetPoint" />
          </mxGeometry>
        </mxCell>
        <mxCell id="OOyDH6xlxbpdCStZkQem-16" value="&lt;b&gt;&lt;font style=&quot;font-size: 20px;&quot;&gt;STOP&lt;/font&gt;&lt;/b&gt;" style="ellipse;whiteSpace=wrap;html=1;" vertex="1" parent="1">
          <mxGeometry x="380" y="530" width="110" height="60" as="geometry" />
        </mxCell>
      </root>
    </mxGraphModel>
  </diagram>
</mxfile>
